<svg xmlns="http://www.w3.org/2000/svg" viewBox="0 0 160 220" fill="none">
  <defs>
    <linearGradient id="beakerGlassOuter" x1="24" x2="136" y1="20" y2="202" gradientUnits="userSpaceOnUse">
      <stop offset="0" stop-color="#fbfeff" stop-opacity="0.94"/>
      <stop offset="0.42" stop-color="#d9f1ff" stop-opacity="0.46"/>
      <stop offset="1" stop-color="#7fc4f4" stop-opacity="0.18"/>
    </linearGradient>
    <linearGradient id="beakerGlassInner" x1="44" x2="116" y1="42" y2="190" gradientUnits="userSpaceOnUse">
      <stop offset="0" stop-color="#ffffff" stop-opacity="0.72"/>
      <stop offset="1" stop-color="#d9efff" stop-opacity="0.1"/>
    </linearGradient>
    <linearGradient id="beakerShadow" x1="80" x2="80" y1="184" y2="212" gradientUnits="userSpaceOnUse">
      <stop offset="0" stop-color="#52718e" stop-opacity="0.18"/>
      <stop offset="1" stop-color="#1e3344" stop-opacity="0"/>
    </linearGradient>
    <filter id="beakerSoftShadow" x="18" y="20" width="124" height="194" filterUnits="userSpaceOnUse">
      <feDropShadow dx="0" dy="6" stdDeviation="6" flood-color="#1d3142" flood-opacity="0.16"/>
    </filter>
  </defs>
  <ellipse cx="80" cy="198" rx="46" ry="9" fill="url(#beakerShadow)"/>
  <g id="beaker-shell" filter="url(#beakerSoftShadow)">
    <path d="M33 28h94c2 0 4 2 4 4v10c0 4-1 7-2 10l-6 14v114c0 14-11 26-25 26H62c-14 0-25-12-25-26V66l-6-14c-1-3-2-6-2-10V32c0-2 2-4 4-4Z" fill="url(#beakerGlassOuter)" stroke="#d7efff" stroke-width="4"/>
    <path d="M40 39h80c2 0 3 1 3 3v16l-5 11v109c0 11-8 20-19 20H61c-11 0-19-9-19-20V69l-5-11V42c0-2 1-3 3-3Z" fill="url(#beakerGlassInner)" opacity="0.68"/>
    <path d="M35 41h90" stroke="#ffffff" stroke-linecap="round" stroke-width="5" opacity="0.86"/>
    <path d="M41 54h78" stroke="#eff9ff" stroke-linecap="round" stroke-width="3" opacity="0.72"/>
    <path d="M53 46v142" stroke="#ffffff" stroke-linecap="round" stroke-width="7" opacity="0.3"/>
    <path d="M107 44v126" stroke="#b7def9" stroke-linecap="round" stroke-width="5" opacity="0.16"/>
  </g>
  <g id="beaker-measure-lines" stroke="#b9d8ef" stroke-linecap="round" stroke-width="2.6" opacity="0.82">
    <path d="M92 76h19"/>
    <path d="M84 96h27"/>
    <path d="M92 116h19"/>
    <path d="M84 136h27"/>
    <path d="M92 156h19"/>
    <path d="M84 176h27"/>
  </g>
  <g stroke="#91b7d0" stroke-width="1.2" opacity="0.7">
    <path d="M112 76h8"/>
    <path d="M112 96h8"/>
    <path d="M112 116h8"/>
    <path d="M112 136h8"/>
    <path d="M112 156h8"/>
    <path d="M112 176h8"/>
  </g>
  <rect id="beaker-liquid-zone" data-zone="liquid-zone" x="43" y="67" width="74" height="119" rx="11" fill="#ffffff" opacity="0.06"/>
  <g id="beaker-effect-zone" data-zone="effect-zone"></g>
  <g id="beaker-overlay">
    <path d="M48 66c11 2 53 2 64 0" stroke="#ffffff" stroke-linecap="round" stroke-width="3.4" opacity="0.4"/>
    <path d="M57 74v88" stroke="#fbfeff" stroke-linecap="round" stroke-width="3.5" opacity="0.28"/>
    <path d="M98 73v68" stroke="#dff2ff" stroke-linecap="round" stroke-width="2.2" opacity="0.2"/>
    <path d="M51 188c9 4 49 4 58 0" stroke="#d2eaff" stroke-linecap="round" stroke-width="2.2" opacity="0.36"/>
  </g>
</svg>
