<svg xmlns="http://www.w3.org/2000/svg" viewBox="0 0 170 220" fill="none">
  <defs>
    <linearGradient id="flaskGlassOuter" x1="35" x2="136" y1="18" y2="204" gradientUnits="userSpaceOnUse">
      <stop offset="0" stop-color="#fbfeff" stop-opacity="0.95"/>
      <stop offset="0.5" stop-color="#d9f1ff" stop-opacity="0.38"/>
      <stop offset="1" stop-color="#76c0ef" stop-opacity="0.16"/>
    </linearGradient>
    <linearGradient id="flaskGlassInner" x1="52" x2="118" y1="38" y2="188" gradientUnits="userSpaceOnUse">
      <stop offset="0" stop-color="#ffffff" stop-opacity="0.74"/>
      <stop offset="1" stop-color="#d8edff" stop-opacity="0.1"/>
    </linearGradient>
    <radialGradient id="flaskShadow" cx="0" cy="0" r="1" gradientTransform="translate(85 196) rotate(90) scale(10 56)" gradientUnits="userSpaceOnUse">
      <stop offset="0" stop-color="#42586d" stop-opacity="0.18"/>
      <stop offset="1" stop-color="#1c2e3c" stop-opacity="0"/>
    </radialGradient>
    <filter id="flaskSoftShadow" x="18" y="16" width="134" height="194" filterUnits="userSpaceOnUse">
      <feDropShadow dx="0" dy="6" stdDeviation="6" flood-color="#203445" flood-opacity="0.14"/>
    </filter>
  </defs>

  <ellipse cx="85" cy="198" rx="52" ry="10" fill="url(#flaskShadow)"/>

  <g id="flask-shell" filter="url(#flaskSoftShadow)">
    <path d="M72 18h26v50l42 101c7 17-5 35-24 35H54c-19 0-31-18-24-35L72 68V18Z" fill="url(#flaskGlassOuter)" stroke="#d7eeff" stroke-width="4"/>
    <path d="M76 28h18v42l36 89c5 13-4 26-18 26H58c-14 0-23-13-18-26l36-89V28Z" fill="url(#flaskGlassInner)" opacity="0.72"/>
    <path d="M70 19h30" stroke="#ffffff" stroke-linecap="round" stroke-width="5" opacity="0.86"/>
    <path d="M69 41h32" stroke="#eef9ff" stroke-linecap="round" stroke-width="3" opacity="0.72"/>
    <path d="M75 30v114" stroke="#ffffff" stroke-linecap="round" stroke-width="6" opacity="0.28"/>
    <path d="M104 43c8 25 17 48 25 72" stroke="#cce7fa" stroke-linecap="round" stroke-width="4" opacity="0.16"/>
  </g>

  <g id="flask-neck" stroke="#aacbe1" stroke-width="2.4" opacity="0.8">
    <path d="M68 58h34"/>
    <path d="M63 104h20"/>
    <path d="M56 126h28"/>
    <path d="M50 148h33"/>
    <path d="M46 170h38"/>
  </g>

  <g stroke="#8fb4ca" stroke-width="1.2" opacity="0.58">
    <path d="M84 104h8"/>
    <path d="M85 126h8"/>
    <path d="M86 148h8"/>
    <path d="M87 170h8"/>
  </g>

  <rect id="flask-liquid-zone" data-zone="liquid-zone" x="41" y="98" width="88" height="91" rx="20" fill="#ffffff" opacity="0.06"/>
  <g id="flask-effect-zone" data-zone="effect-zone"></g>

  <g id="flask-overlay">
    <path d="M62 78c16 4 33 4 49 0" stroke="#ffffff" stroke-linecap="round" stroke-width="3.2" opacity="0.44"/>
    <path d="M77 34v32" stroke="#fbfeff" stroke-linecap="round" stroke-width="3.6" opacity="0.26"/>
    <path d="M61 184c14 3 34 3 48 0" stroke="#d8eeff" stroke-linecap="round" stroke-width="2.3" opacity="0.34"/>
  </g>
</svg>
